<svg width="12" height="12" viewBox="0 0 12 12" fill="none" xmlns="http://www.w3.org/2000/svg">
<path d="M0.251828 6.61792L4.53754 10.9929C4.70361 11.1652 4.92326 11.25 5.1429 11.25C5.36254 11.25 5.58165 11.1645 5.74879 10.9936C6.08361 10.6518 6.08361 10.0981 5.74879 9.7563L2.92504 6.87495H11.1429C11.6162 6.87495 12 6.48394 12 5.99995C12 5.51597 11.6162 5.12495 11.1429 5.12495H2.92504L5.74826 2.24292C6.08308 1.90112 6.08308 1.34741 5.74826 1.00562C5.41344 0.663818 4.87102 0.663818 4.5362 1.00562L0.250489 5.38062C-0.0829935 5.72378 -0.0829935 6.27612 0.251828 6.61792Z" fill="#BDBDBD"/>
</svg>
