<svg width="10" height="6" viewBox="0 0 10 6" fill="none" xmlns="http://www.w3.org/2000/svg">
<path d="M4.998 3.86586L8.23034 0.503645C8.31913 0.411066 8.43784 0.360137 8.56442 0.360137C8.69107 0.360137 8.80971 0.411066 8.89864 0.503645L9.18172 0.79826C9.27079 0.890693 9.31982 1.01425 9.31982 1.14593C9.31982 1.2776 9.27079 1.40101 9.18172 1.49352L5.33334 5.49677C5.24413 5.58964 5.12493 5.6405 4.99821 5.64014C4.87093 5.6405 4.75186 5.58972 4.66258 5.49677L0.817924 1.49724C0.728855 1.40474 0.679824 1.28132 0.679824 1.14958C0.679824 1.01791 0.728855 0.894494 0.817924 0.801915L1.10101 0.507372C1.28526 0.315711 1.5852 0.315711 1.76938 0.507372L4.998 3.86586Z" fill="#BDBDBD"/>
</svg>
