<svg width="26" height="28" viewBox="0 0 26 28" fill="none" xmlns="http://www.w3.org/2000/svg">
<path d="M11.4604 27.9999C8.62908 28.0036 5.90919 26.8969 3.8848 24.9175C-0.351185 20.5156 -0.26847 13.5283 4.07056 9.22786L10.8773 2.42226C13.6585 -0.438926 18.1236 -0.811171 21.3402 1.55003C24.767 4.18093 25.4122 9.09163 22.7813 12.5184C22.5758 12.7861 22.3532 13.0402 22.1149 13.2791L14.9919 20.402C14.1903 21.2402 13.1264 21.7794 11.9765 21.9303C10.4178 22.1011 8.87475 21.495 7.84894 20.3091C6.27625 18.2945 6.44438 15.4254 8.24157 13.6082L13.6717 8.18276C14.3603 7.49437 15.4766 7.49437 16.1652 8.18276C16.8536 8.87137 16.8536 9.98761 16.1652 10.6762L10.5681 16.2745C10.0756 16.7673 10.0759 17.566 10.5687 18.0585C11.0615 18.5509 11.8603 18.5507 12.3527 18.0578L19.5403 10.8714C21.0159 9.4366 21.2888 7.16605 20.1952 5.42248C18.9037 3.43313 16.2441 2.86735 14.2547 4.15883C14.0057 4.32051 13.774 4.5076 13.5635 4.71711L6.46995 11.8166C3.78875 14.42 3.44042 18.603 5.6541 21.6141C8.11632 24.8208 12.712 25.4244 15.9187 22.9622C16.1693 22.7698 16.4071 22.5614 16.6307 22.3382L22.2289 16.7412C22.9175 16.0528 24.0338 16.0528 24.7224 16.7412C25.4108 17.4298 25.4108 18.546 24.7224 19.2346L19.1242 24.8317C17.0929 26.8655 14.3348 28.0057 11.4604 27.9999Z" fill="#7ABBB5"/>
</svg>
