<svg width="20" height="19" viewBox="0 0 20 19" fill="none" xmlns="http://www.w3.org/2000/svg">
<g clip-path="url(#clip0_204_2281)">
<path d="M12.3203 0.575195C12.0977 0.218945 11.6875 0 11.25 0C10.8125 0 10.4023 0.218945 10.1797 0.575195L6.42969 6.5127C6.19922 6.88008 6.19141 7.33652 6.41406 7.70762C6.63672 8.07871 7.05078 8.30879 7.5 8.30879H15C15.4492 8.30879 15.8672 8.07871 16.0859 7.70762C16.3047 7.33652 16.3008 6.88008 16.0703 6.5127L12.3203 0.575195ZM11.25 11.5781V16.9219C11.25 17.742 11.9492 18.4062 12.8125 18.4062H18.4375C19.3008 18.4062 20 17.742 20 16.9219V11.5781C20 10.758 19.3008 10.0938 18.4375 10.0938H12.8125C11.9492 10.0938 11.25 10.758 11.25 11.5781ZM5 19C7.76172 19 10 16.8736 10 14.25C10 11.6264 7.76172 9.5 5 9.5C2.23828 9.5 0 11.6264 0 14.25C0 16.8736 2.23828 19 5 19Z" fill="white"/>
</g>
<defs>
<clipPath id="clip0_204_2281">
<rect width="20" height="19" fill="white"/>
</clipPath>
</defs>
</svg>
