<svg width="20" height="19" viewBox="0 0 20 19" fill="none" xmlns="http://www.w3.org/2000/svg">
<g clip-path="url(#clip0_204_2278)">
<path d="M18.3319 0.716309L19.2459 1.58467C20.2225 2.5124 20.2225 4.01533 19.2459 4.94307L17.0428 7.03604L12.5897 2.80928L14.7928 0.716309C15.7694 -0.211426 17.3514 -0.211426 18.3279 0.716309H18.3319ZM1.75373 13.1071L11.7069 3.64795L16.16 7.87842L6.20295 17.3339C5.94123 17.5825 5.6131 17.7644 5.25763 17.8608L1.19513 18.963C0.867009 19.0521 0.515446 18.9667 0.273259 18.7366C0.031071 18.5065 -0.0587727 18.1726 0.0349773 17.8608L1.19513 14.0015C1.2967 13.6601 1.4881 13.3521 1.74982 13.1034L1.75373 13.1071ZM9.74201 3.83721L4.03888 9.25518L0.624821 6.00811C-0.105648 5.31416 -0.105648 4.18604 0.624821 3.48838L3.6756 0.593848C4.40607 -0.100098 5.59357 -0.100098 6.32795 0.593848L7.10138 1.32861C7.08966 1.33975 7.07404 1.35088 7.06232 1.36201L4.56232 3.73701C4.32013 3.96709 4.32013 4.34561 4.56232 4.57568C4.80451 4.80576 5.20295 4.80576 5.44513 4.57568L7.94513 2.20068C7.95685 2.18955 7.96857 2.17471 7.98029 2.16357L9.74201 3.83721ZM15.9608 9.74502L17.7225 11.4187C17.7108 11.4298 17.6951 11.4409 17.6834 11.4521L15.1834 13.8271C14.9412 14.0571 14.9412 14.4356 15.1834 14.6657C15.4256 14.8958 15.824 14.8958 16.0662 14.6657L18.5662 12.2907C18.5779 12.2796 18.5897 12.2647 18.6014 12.2536L19.3748 12.9921C20.1053 13.686 20.1053 14.8142 19.3748 15.5118L16.324 18.4063C15.5936 19.1003 14.4061 19.1003 13.6717 18.4063L10.2576 15.163L15.9608 9.74502Z" fill="white"/>
</g>
<defs>
<clipPath id="clip0_204_2278">
<rect width="20" height="19" fill="white"/>
</clipPath>
</defs>
</svg>
