<svg width="22" height="22" viewBox="0 0 22 22" fill="none" xmlns="http://www.w3.org/2000/svg">
<g clip-path="url(#clip0_23_3868)">
<path d="M19.25 10.5417V13.75H16.5C15.7707 13.75 15.0712 14.0397 14.5555 14.5555C14.0397 15.0712 13.75 15.7707 13.75 16.5V19.25H4.125C3.76033 19.25 3.41059 19.1051 3.15273 18.8473C2.89487 18.5894 2.75 18.2397 2.75 17.875V4.125C2.75 3.76033 2.89487 3.41059 3.15273 3.15273C3.41059 2.89487 3.76033 2.75 4.125 2.75H12.375C12.7397 2.75 13.0894 2.60513 13.3473 2.34727C13.6051 2.08941 13.75 1.73967 13.75 1.375C13.75 1.01033 13.6051 0.660591 13.3473 0.402728C13.0894 0.144866 12.7397 0 12.375 0L4.125 0C3.03098 0 1.98177 0.434597 1.20818 1.20818C0.434597 1.98177 0 3.03098 0 4.125L0 17.875C0 18.969 0.434597 20.0182 1.20818 20.7918C1.98177 21.5654 3.03098 22 4.125 22H15.1103C16.2039 22 17.2527 21.5658 18.0263 20.7928L20.7918 18.0272C21.5652 17.2538 21.9998 16.205 22 15.1113V10.5417C22 10.177 21.8551 9.82726 21.5973 9.5694C21.3394 9.31153 20.9897 9.16667 20.625 9.16667C20.2603 9.16667 19.9106 9.31153 19.6527 9.5694C19.3949 9.82726 19.25 10.177 19.25 10.5417Z" fill="#C8C8C8"/>
<path d="M16.3104 1.64343L4.85208 13.1018C4.68016 13.2736 4.58355 13.5068 4.5835 13.7499V16.4999C4.5835 16.743 4.68007 16.9761 4.85198 17.148C5.02389 17.3199 5.25705 17.4165 5.50016 17.4165H8.25016C8.49326 17.4165 8.72638 17.3199 8.89825 17.1479L20.2017 5.84452C20.5842 5.47569 20.8653 5.01466 21.0182 4.50577C21.171 3.99687 21.1903 3.45722 21.0743 2.93868C20.9446 2.45643 20.6907 2.0166 20.338 1.663C19.9853 1.30941 19.5461 1.05439 19.0642 0.923366C18.5823 0.792339 18.0745 0.789872 17.5913 0.91621C17.1081 1.04255 16.6665 1.29328 16.3104 1.64343Z" fill="#C8C8C8"/>
</g>
<defs>
<clipPath id="clip0_23_3868">
<rect width="22" height="22" fill="white"/>
</clipPath>
</defs>
</svg>
