<svg width="22" height="18" viewBox="0 0 22 18" fill="none" xmlns="http://www.w3.org/2000/svg">
<path d="M10.9998 12.6655C13.024 12.6655 14.6651 11.0245 14.6651 9.00025C14.6651 6.97597 13.024 5.33496 10.9998 5.33496C8.97548 5.33496 7.33447 6.97597 7.33447 9.00025C7.33447 11.0245 8.97548 12.6655 10.9998 12.6655Z" fill="#0A0D31"/>
<path d="M21.3279 6.63506C19.9067 4.32042 16.6739 0.437012 11 0.437012C5.32608 0.437012 2.09328 4.32042 0.672061 6.63506C-0.22402 8.08442 -0.22402 9.91575 0.672061 11.3652C2.09328 13.6798 5.32608 17.5632 11 17.5632C16.6739 17.5632 19.9067 13.6798 21.3279 11.3652C22.224 9.91575 22.224 8.08442 21.3279 6.63506ZM11 14.498C7.96356 14.498 5.50202 12.0365 5.50202 9.00008C5.50202 5.96366 7.96356 3.50212 11 3.50212C14.0364 3.50212 16.4979 5.96366 16.4979 9.00008C16.4949 12.0353 14.0352 14.495 11 14.498Z" fill="#0A0D31"/>
</svg>
