<svg width="20" height="20" viewBox="0 0 20 20" fill="none" xmlns="http://www.w3.org/2000/svg">
<g clip-path="url(#clip0_204_2287)">
<path d="M3.74976 5.83344C3.36657 5.83452 2.98698 5.75958 2.63295 5.61296C2.27892 5.46634 1.95748 5.25096 1.68726 4.97927L0.416425 3.85011C0.16889 3.62909 0.0192903 3.3188 0.00053665 2.98748C-0.00874921 2.82343 0.0143679 2.65916 0.0685682 2.50405C0.122768 2.34893 0.20699 2.20601 0.316425 2.08344C0.42586 1.96087 0.558365 1.86106 0.706374 1.7897C0.854383 1.71835 1.015 1.67684 1.17905 1.66755C1.51036 1.6488 1.83556 1.76243 2.08309 1.98344L3.40309 3.16177C3.44607 3.21257 3.49901 3.25401 3.55864 3.28353C3.61826 3.31306 3.68331 3.33004 3.74976 3.33344C3.86005 3.33342 3.96584 3.28967 4.04393 3.21177L7.05476 0.345107C7.29651 0.126355 7.61416 0.0107103 7.93996 0.0228387C8.26576 0.0349672 8.57394 0.173908 8.79875 0.410029C9.02357 0.646151 9.14723 0.960764 9.14337 1.28677C9.13951 1.61278 9.00843 1.92437 8.77809 2.15511L5.78976 5.00011C5.52126 5.26638 5.20286 5.47705 4.8528 5.62005C4.50273 5.76305 4.1279 5.83556 3.74976 5.83344ZM19.9998 2.91677C19.9998 2.58525 19.8681 2.26731 19.6336 2.03289C19.3992 1.79847 19.0813 1.66677 18.7498 1.66677H12.0831C11.7516 1.66677 11.4336 1.79847 11.1992 2.03289C10.9648 2.26731 10.8331 2.58525 10.8331 2.91677C10.8331 3.24829 10.9648 3.56624 11.1992 3.80066C11.4336 4.03508 11.7516 4.16677 12.0831 4.16677H18.7498C19.0813 4.16677 19.3992 4.03508 19.6336 3.80066C19.8681 3.56624 19.9998 3.24829 19.9998 2.91677ZM5.78976 11.6668L8.77809 8.82177C9.00843 8.59104 9.13951 8.27944 9.14337 7.95344C9.14723 7.62743 9.02357 7.31282 8.79875 7.0767C8.57394 6.84057 8.26576 6.70163 7.93996 6.68951C7.61416 6.67738 7.29651 6.79302 7.05476 7.01177L4.04393 9.87844C3.96579 9.95655 3.85983 10.0004 3.74934 10.0004C3.63886 10.0004 3.5329 9.95655 3.45476 9.87844L2.13393 8.55677C1.89943 8.32228 1.58139 8.19054 1.24976 8.19054C0.918132 8.19054 0.600088 8.32228 0.365592 8.55677C0.131096 8.79127 -0.000641861 9.10931 -0.000641861 9.44094C-0.000641861 9.77257 0.131096 10.0906 0.365592 10.3251L1.68726 11.6459C2.23056 12.1889 2.96612 12.4957 3.73423 12.4996C4.50233 12.5035 5.24097 12.2042 5.78976 11.6668ZM19.9998 9.58344C19.9998 9.25192 19.8681 8.93398 19.6336 8.69956C19.3992 8.46514 19.0813 8.33344 18.7498 8.33344H12.0831C11.7516 8.33344 11.4336 8.46514 11.1992 8.69956C10.9648 8.93398 10.8331 9.25192 10.8331 9.58344C10.8331 9.91496 10.9648 10.2329 11.1992 10.4673C11.4336 10.7017 11.7516 10.8334 12.0831 10.8334H18.7498C19.0813 10.8334 19.3992 10.7017 19.6336 10.4673C19.8681 10.2329 19.9998 9.91496 19.9998 9.58344ZM5.78976 18.3334L8.77809 15.4884C9.00843 15.2577 9.13951 14.9461 9.14337 14.6201C9.14723 14.2941 9.02357 13.9795 8.79875 13.7434C8.57394 13.5072 8.26576 13.3683 7.93996 13.3562C7.61416 13.344 7.29651 13.4597 7.05476 13.6784L4.04393 16.5451C3.96584 16.623 3.86005 16.6668 3.74976 16.6668C3.68331 16.6634 3.61826 16.6464 3.55864 16.6169C3.49901 16.5873 3.44607 16.5459 3.40309 16.4951L2.08309 15.3168C1.83556 15.0958 1.51036 14.9821 1.17905 15.0009C0.847734 15.0196 0.537439 15.1692 0.316425 15.4168C0.0954116 15.6643 -0.018217 15.9895 0.00053665 16.3208C0.0192903 16.6521 0.16889 16.9624 0.416425 17.1834L1.68559 18.3126C2.22896 18.8561 2.96488 19.1632 3.73339 19.1671C4.5019 19.171 5.2409 18.8714 5.78976 18.3334ZM19.9998 16.2501C19.9998 15.9186 19.8681 15.6006 19.6336 15.3662C19.3992 15.1318 19.0813 15.0001 18.7498 15.0001H12.0831C11.7516 15.0001 11.4336 15.1318 11.1992 15.3662C10.9648 15.6006 10.8331 15.9186 10.8331 16.2501C10.8331 16.5816 10.9648 16.8996 11.1992 17.134C11.4336 17.3684 11.7516 17.5001 12.0831 17.5001H18.7498C19.0813 17.5001 19.3992 17.3684 19.6336 17.134C19.8681 16.8996 19.9998 16.5816 19.9998 16.2501Z" fill="white"/>
</g>
<defs>
<clipPath id="clip0_204_2287">
<rect width="20" height="20" fill="white"/>
</clipPath>
</defs>
</svg>
