<svg width="20" height="19" viewBox="0 0 20 19" fill="none" xmlns="http://www.w3.org/2000/svg">
<g clip-path="url(#clip0_204_2275)">
<path d="M10 11.8691C8.6193 11.8691 7.5 12.9325 7.5 14.2441V18.9941H12.5V14.2441C12.5 12.9325 11.3807 11.8691 10 11.8691Z" fill="#fff"/>
<path d="M14.1667 14.244V18.994H17.5C18.8807 18.994 20 17.9307 20 16.619V9.39825C20.0002 8.98697 19.832 8.59175 19.5308 8.29625L12.4492 1.02318C11.1996 -0.261172 9.09074 -0.34003 7.73879 0.847025C7.67457 0.903431 7.6127 0.962175 7.55336 1.02318L0.48418 8.29387C0.173945 8.5906 -0.000117128 8.9919 5.9134e-08 9.41012V16.619C5.9134e-08 17.9307 1.1193 18.994 2.5 18.994H5.83332V14.244C5.84891 12.0853 7.68355 10.3225 9.89867 10.2717C12.1879 10.2192 14.1492 12.0121 14.1667 14.244Z" fill="#fff"/>
<path d="M10 11.8691C8.6193 11.8691 7.5 12.9325 7.5 14.2441V18.9941H12.5V14.2441C12.5 12.9325 11.3807 11.8691 10 11.8691Z" fill="#fff"/>
</g>
<defs>
<clipPath id="clip0_204_2275">
<rect width="20" height="19" fill="white"/>
</clipPath>
</defs>
</svg>
