<svg width="39" height="39" viewBox="0 0 39 39" fill="none" xmlns="http://www.w3.org/2000/svg">
<g clip-path="url(#clip0_108_283)">
<path d="M30.875 0H8.125C5.97091 0.00258027 3.90578 0.859433 2.38261 2.38261C0.859433 3.90578 0.00258027 5.97091 0 8.125L0 30.875C0.00258027 33.0291 0.859433 35.0942 2.38261 36.6174C3.90578 38.1406 5.97091 38.9974 8.125 39H30.875C33.0291 38.9974 35.0942 38.1406 36.6174 36.6174C38.1406 35.0942 38.9974 33.0291 39 30.875V8.125C38.9974 5.97091 38.1406 3.90578 36.6174 2.38261C35.0942 0.859433 33.0291 0.00258027 30.875 0V0ZM8.125 3.25H30.875C32.1679 3.25 33.4079 3.76361 34.3221 4.67785C35.2364 5.59209 35.75 6.83207 35.75 8.125V30.875C35.7472 31.5989 35.5805 32.3128 35.2625 32.9631L20.3726 18.0732C19.6181 17.3185 18.7223 16.7199 17.7364 16.3114C16.7505 15.903 15.6938 15.6927 14.6266 15.6927C13.5595 15.6927 12.5027 15.903 11.5168 16.3114C10.5309 16.7199 9.63513 17.3185 8.88062 18.0732L3.25 23.7023V8.125C3.25 6.83207 3.76361 5.59209 4.67785 4.67785C5.59209 3.76361 6.83207 3.25 8.125 3.25ZM8.125 35.75C6.83207 35.75 5.59209 35.2364 4.67785 34.3221C3.76361 33.4079 3.25 32.1679 3.25 30.875V28.2977L11.1767 20.371C11.6295 19.918 12.167 19.5586 12.7587 19.3134C13.3504 19.0682 13.9845 18.942 14.625 18.942C15.2655 18.942 15.8996 19.0682 16.4913 19.3134C17.083 19.5586 17.6205 19.918 18.0732 20.371L32.9631 35.2625C32.3128 35.5805 31.5989 35.7472 30.875 35.75H8.125Z" fill="#C8C8C8"/>
<path d="M26 17.0625C27.1249 17.0625 28.2245 16.7289 29.1598 16.104C30.0951 15.479 30.8241 14.5908 31.2546 13.5515C31.685 12.5123 31.7977 11.3687 31.5782 10.2654C31.3588 9.16216 30.8171 8.14874 30.0217 7.35333C29.2263 6.55792 28.2128 6.01624 27.1096 5.79679C26.0063 5.57733 24.8627 5.68996 23.8235 6.12044C22.7842 6.55091 21.896 7.27989 21.271 8.2152C20.6461 9.1505 20.3125 10.2501 20.3125 11.375C20.3125 12.8834 20.9117 14.3301 21.9783 15.3967C23.0449 16.4633 24.4916 17.0625 26 17.0625ZM26 8.9375C26.4821 8.9375 26.9534 9.08046 27.3542 9.3483C27.755 9.61613 28.0675 9.99682 28.252 10.4422C28.4364 10.8876 28.4847 11.3777 28.3907 11.8505C28.2966 12.3234 28.0645 12.7577 27.7236 13.0986C27.3827 13.4395 26.9484 13.6716 26.4755 13.7657C26.0027 13.8597 25.5126 13.8114 25.0672 13.627C24.6218 13.4425 24.2411 13.1301 23.9733 12.7292C23.7055 12.3284 23.5625 11.8571 23.5625 11.375C23.5625 10.7285 23.8193 10.1086 24.2764 9.65143C24.7335 9.19431 25.3535 8.9375 26 8.9375Z" fill="#C8C8C8"/>
</g>
<defs>
<clipPath id="clip0_108_283">
<rect width="39" height="39" fill="white"/>
</clipPath>
</defs>
</svg>
