<svg width="22" height="22" viewBox="0 0 22 22" fill="none" xmlns="http://www.w3.org/2000/svg">
<g clip-path="url(#clip0_1_62)">
<path d="M11 0C8.82441 0 6.69767 0.645139 4.88873 1.85383C3.07979 3.06253 1.66989 4.7805 0.83733 6.79048C0.00476615 8.80047 -0.213071 11.0122 0.211367 13.146C0.635804 15.2798 1.68345 17.2398 3.22183 18.7782C4.76021 20.3166 6.72022 21.3642 8.85401 21.7886C10.9878 22.2131 13.1995 21.9952 15.2095 21.1627C17.2195 20.3301 18.9375 18.9202 20.1462 17.1113C21.3549 15.3023 22 13.1756 22 11C21.9968 8.08359 20.8369 5.28753 18.7747 3.22531C16.7125 1.16309 13.9164 0.00315432 11 0V0ZM11 20.1667C9.18701 20.1667 7.41473 19.6291 5.90728 18.6218C4.39983 17.6146 3.22491 16.1829 2.53111 14.5079C1.83731 12.8329 1.65578 10.9898 2.00947 9.21167C2.36317 7.43351 3.23621 5.80017 4.51819 4.51819C5.80017 3.23621 7.43352 2.36317 9.21168 2.00947C10.9898 1.65577 12.8329 1.8373 14.5079 2.5311C16.1829 3.22491 17.6146 4.39982 18.6218 5.90727C19.6291 7.41472 20.1667 9.18701 20.1667 11C20.164 13.4303 19.1974 15.7604 17.4789 17.4789C15.7604 19.1974 13.4303 20.164 11 20.1667Z" fill="#C8C8C8"/>
<path d="M11.6574 4.64093C11.1288 4.54462 10.5855 4.56566 10.0659 4.70257C9.54631 4.83948 9.06316 5.08891 8.65065 5.43321C8.23813 5.77751 7.90633 6.20827 7.67872 6.695C7.45111 7.18172 7.33326 7.71253 7.3335 8.24985C7.3335 8.49296 7.43007 8.72612 7.60198 8.89803C7.77389 9.06994 8.00705 9.16651 8.25016 9.16651C8.49328 9.16651 8.72644 9.06994 8.89834 8.89803C9.07025 8.72612 9.16683 8.49296 9.16683 8.24985C9.1666 7.98014 9.22588 7.71371 9.34044 7.46954C9.455 7.22538 9.62202 7.00949 9.8296 6.83729C10.0372 6.66509 10.2802 6.5408 10.5413 6.4733C10.8024 6.40579 11.0752 6.39673 11.3402 6.44676C11.7024 6.51706 12.0353 6.6937 12.2966 6.95413C12.5578 7.21456 12.7355 7.54695 12.8069 7.90885C12.8791 8.28872 12.8292 8.68167 12.6646 9.03152C12.5 9.38138 12.2289 9.67022 11.8902 9.85676C11.3294 10.1817 10.866 10.6511 10.5482 11.216C10.2304 11.7809 10.0699 12.4207 10.0835 13.0688V13.7498C10.0835 13.993 10.1801 14.2261 10.352 14.398C10.5239 14.5699 10.757 14.6665 11.0002 14.6665C11.2433 14.6665 11.4764 14.5699 11.6483 14.398C11.8203 14.2261 11.9168 13.993 11.9168 13.7498V13.0688C11.9053 12.7498 11.9781 12.4334 12.1277 12.1514C12.2774 11.8695 12.4987 11.632 12.7693 11.4628C13.4335 11.098 13.9683 10.5364 14.3002 9.8553C14.6322 9.17417 14.745 8.40692 14.6231 7.65908C14.5012 6.91123 14.1506 6.21951 13.6195 5.67905C13.0885 5.13859 12.403 4.77592 11.6574 4.64093Z" fill="#C8C8C8"/>
<path d="M11.9168 16.5002C11.9168 15.9939 11.5064 15.5835 11.0002 15.5835C10.4939 15.5835 10.0835 15.9939 10.0835 16.5002C10.0835 17.0064 10.4939 17.4168 11.0002 17.4168C11.5064 17.4168 11.9168 17.0064 11.9168 16.5002Z" fill="#C8C8C8"/>
</g>
<defs>
<clipPath id="clip0_1_62">
<rect width="22" height="22" fill="white"/>
</clipPath>
</defs>
</svg>
