<svg width="19" height="19" viewBox="0 0 19 19" fill="none" xmlns="http://www.w3.org/2000/svg">
<path d="M5.9375 3.5625C6.59434 3.5625 7.125 3.03184 7.125 2.375C7.125 1.71816 6.59434 1.1875 5.9375 1.1875H3.5625C1.5957 1.1875 0 2.7832 0 4.75V14.25C0 16.2168 1.5957 17.8125 3.5625 17.8125H5.9375C6.59434 17.8125 7.125 17.2818 7.125 16.625C7.125 15.9682 6.59434 15.4375 5.9375 15.4375H3.5625C2.90566 15.4375 2.375 14.9068 2.375 14.25V4.75C2.375 4.09316 2.90566 3.5625 3.5625 3.5625H5.9375ZM18.7217 10.1457C18.8998 9.97871 19 9.74492 19 9.5C19 9.25508 18.8998 9.02129 18.7217 8.8543L13.3779 3.80742C13.1182 3.5625 12.7396 3.4957 12.4131 3.63672C12.0865 3.77773 11.875 4.10059 11.875 4.45312V7.125H7.125C6.46816 7.125 5.9375 7.65566 5.9375 8.3125V10.6875C5.9375 11.3443 6.46816 11.875 7.125 11.875H11.875V14.5469C11.875 14.9031 12.0865 15.2223 12.4131 15.3633C12.7396 15.5043 13.1182 15.4375 13.3779 15.1926L18.7217 10.1457Z" fill="white"/>
</svg>
