<svg width="39" height="39" viewBox="0 0 39 39" fill="none" xmlns="http://www.w3.org/2000/svg">
<g clip-path="url(#clip0_1_2421)">
<path d="M38.2376 9.77696L19.8802 3.29999C19.6342 3.21315 19.3659 3.21315 19.1199 3.29999L0.762481 9.77696C0.30606 9.93799 0.000610288 10.3691 9.13074e-07 10.8531C-0.000608462 11.3371 0.303851 11.7689 0.759892 11.931L19.1173 18.4572C19.2411 18.5012 19.3706 18.5232 19.5 18.5232C19.6295 18.5232 19.7589 18.5012 19.8827 18.4572L38.2401 11.931C38.6961 11.7689 39.0005 11.3371 39 10.8531C38.9994 10.3691 38.6939 9.93799 38.2376 9.77696Z" fill="#0A0D31"/>
<path d="M36.2559 25.0279V15.0615L33.9707 15.8739V25.0279C33.2824 25.424 32.8186 26.1663 32.8186 27.0175C32.8186 27.8687 33.2824 28.6111 33.9707 29.0072V34.6223C33.9707 35.2533 34.4823 35.7649 35.1133 35.7649C35.7443 35.7649 36.2559 35.2533 36.2559 34.6223V29.0073C36.9441 28.6112 37.408 27.8688 37.408 27.0176C37.408 26.1664 36.9442 25.424 36.2559 25.0279Z" fill="#0A0D31"/>
<path d="M19.5 20.8083C19.1078 20.8083 18.7215 20.7416 18.3519 20.6102L8.03186 16.9414V21.9694C8.03186 23.1995 9.31513 24.2397 11.846 25.0612C14.052 25.7772 16.7703 26.1715 19.5 26.1715C22.2297 26.1715 24.9479 25.7772 27.154 25.0612C29.6849 24.2397 30.9681 23.1995 30.9681 21.9694V16.9414L20.6482 20.6102C20.2785 20.7416 19.8922 20.8083 19.5 20.8083Z" fill="#0A0D31"/>
</g>
<defs>
<clipPath id="clip0_1_2421">
<rect width="39" height="39" fill="white"/>
</clipPath>
</defs>
</svg>
