<svg width="22" height="22" viewBox="0 0 22 22" fill="none" xmlns="http://www.w3.org/2000/svg">
<path d="M21.3208 14.8498L18.9375 6.25975C18.4285 4.42222 17.3196 2.80771 15.7871 1.6732C14.2547 0.538679 12.3868 -0.0506541 10.4807 -0.00100772C8.57466 0.0486386 6.73998 0.734411 5.26866 1.94717C3.79735 3.15992 2.77396 4.82996 2.36138 6.6915L0.517961 14.9873C0.428763 15.3892 0.430939 15.806 0.524328 16.207C0.617717 16.6079 0.799937 16.9828 1.05754 17.3039C1.31515 17.6251 1.64157 17.8843 2.01272 18.0624C2.38387 18.2405 2.79028 18.3331 3.20196 18.3332H6.50838C6.71877 19.3693 7.28088 20.3008 8.09947 20.9698C8.91807 21.6389 9.9428 22.0044 11 22.0044C12.0573 22.0044 13.082 21.6389 13.9006 20.9698C14.7192 20.3008 15.2813 19.3693 15.4917 18.3332H18.6725C19.0961 18.333 19.514 18.2349 19.8934 18.0467C20.2729 17.8584 20.6038 17.585 20.8602 17.2479C21.1166 16.9107 21.2917 16.5189 21.3717 16.1029C21.4518 15.6869 21.4347 15.2581 21.3217 14.8498H21.3208ZM11 20.1665C10.4333 20.1642 9.88113 19.9868 9.41907 19.6586C8.95701 19.3304 8.60762 18.8675 8.41871 18.3332H13.5814C13.3925 18.8675 13.0431 19.3304 12.581 19.6586C12.119 19.9868 11.5668 20.1642 11 20.1665ZM19.4013 16.1377C19.3158 16.2511 19.2049 16.3429 19.0776 16.4058C18.9502 16.4687 18.81 16.5009 18.668 16.4998H3.20196C3.0647 16.4998 2.9292 16.469 2.80545 16.4096C2.68171 16.3502 2.57289 16.2637 2.48701 16.1567C2.40114 16.0496 2.3404 15.9246 2.3093 15.7909C2.27819 15.6572 2.27751 15.5182 2.30729 15.3842L4.15071 7.08841C4.47553 5.62744 5.27941 4.31697 6.43455 3.36533C7.58968 2.41368 9.02978 1.87549 10.5259 1.83629C12.0221 1.7971 13.4884 2.25916 14.6917 3.14901C15.8951 4.03887 16.7665 5.30545 17.1674 6.74742L19.5507 15.3375C19.5896 15.4733 19.5964 15.6164 19.5705 15.7553C19.5445 15.8942 19.4866 16.0251 19.4013 16.1377Z" fill="#828282"/>
</svg>
