<svg width="26" height="20" viewBox="0 0 26 20" fill="none" xmlns="http://www.w3.org/2000/svg">
<path d="M0 5C0 3.62109 1.16594 2.5 2.6 2.5H20.8C22.2341 2.5 23.4 3.62109 23.4 5V7.52344C22.7825 7.60156 22.1894 7.86719 21.7181 8.32422L14.3528 15.4023C14.0197 15.7227 13.7841 16.125 13.6703 16.5625L13.4266 17.4961H2.6C1.16594 17.4961 0 16.375 0 14.9961V5ZM10.4 11.875C10.4 12.2188 10.6925 12.5 11.05 12.5H13.65C14.0075 12.5 14.3 12.2188 14.3 11.875C14.3 11.5312 14.0075 11.25 13.65 11.25H11.05C10.6925 11.25 10.4 11.5312 10.4 11.875ZM11.05 7.5C10.6925 7.5 10.4 7.78125 10.4 8.125C10.4 8.46875 10.6925 8.75 11.05 8.75H17.55C17.9075 8.75 18.2 8.46875 18.2 8.125C18.2 7.78125 17.9075 7.5 17.55 7.5H11.05ZM5.85 5.46484C5.39906 5.46484 5.03344 5.81641 5.03344 6.25V6.48438C4.80594 6.53125 4.59063 6.59766 4.3875 6.68359C3.77813 6.94922 3.25406 7.44141 3.12406 8.15625C3.05094 8.55469 3.09156 8.9375 3.26219 9.28906C3.43281 9.63281 3.69688 9.875 3.965 10.0508C4.43625 10.3594 5.05781 10.5391 5.53313 10.6758L5.6225 10.7031C6.18719 10.8672 6.57313 10.9922 6.81281 11.1602C6.91438 11.2305 6.95094 11.2852 6.96313 11.3164C6.97531 11.3477 6.99969 11.418 6.97125 11.5781C6.94688 11.7148 6.86969 11.8281 6.64625 11.9219C6.39844 12.0234 5.99625 12.0742 5.47625 11.9961C5.2325 11.957 4.79781 11.8164 4.41188 11.6875C4.3225 11.6602 4.23719 11.6289 4.15188 11.6055C3.72531 11.4688 3.26625 11.6914 3.12406 12.1016C2.98188 12.5117 3.21344 12.9531 3.64 13.0898C3.68875 13.1055 3.74969 13.125 3.81875 13.1484C4.13969 13.2539 4.64344 13.418 5.02938 13.5039V13.75C5.02938 14.1836 5.395 14.5352 5.84594 14.5352C6.29688 14.5352 6.6625 14.1836 6.6625 13.75V13.5352C6.87781 13.4961 7.08906 13.4375 7.28813 13.3555C7.92594 13.0938 8.44188 12.5859 8.57188 11.8438C8.645 11.4375 8.6125 11.0508 8.45 10.6953C8.29156 10.3437 8.03563 10.0859 7.76344 9.89453C7.26781 9.55078 6.61375 9.35938 6.12219 9.21484L6.08969 9.20703C5.51281 9.03906 5.12281 8.92188 4.875 8.76172C4.76938 8.69141 4.73688 8.64453 4.72875 8.625C4.72063 8.61328 4.70031 8.5625 4.72469 8.42969C4.73688 8.35547 4.80188 8.22656 5.05781 8.11328C5.31781 8 5.72406 7.9375 6.21969 8.01172C6.39438 8.03906 6.94688 8.14062 7.10125 8.17969C7.53594 8.28906 7.97875 8.04297 8.09656 7.625C8.21438 7.20703 7.95438 6.78125 7.51969 6.66797C7.34094 6.62109 6.93469 6.54297 6.66656 6.49609V6.25C6.66656 5.81641 6.30094 5.46484 5.85 5.46484ZM24.9356 9.20703L25.5206 9.76953C26.1544 10.3789 26.1544 11.3672 25.5206 11.9805L24.3263 13.1289L21.4419 10.3555L22.6363 9.20703C23.27 8.59766 24.2978 8.59766 24.9356 9.20703ZM15.2709 16.2891L20.5197 11.2422L23.4041 14.0156L18.1553 19.0586C17.9888 19.2188 17.7816 19.332 17.55 19.3867L15.1084 19.9727C14.885 20.0273 14.6534 19.9648 14.4909 19.8086C14.3284 19.6523 14.2634 19.4297 14.3203 19.2148L14.9297 16.8672C14.9866 16.6484 15.1044 16.4453 15.2709 16.2852V16.2891Z" fill="white"/>
</svg>
